<?xml version="1.0" standalone="no"?>
<!DOCTYPE svg PUBLIC "-//W3C//DTD SVG 20010904//EN"
 "http://www.w3.org/TR/2001/REC-SVG-20010904/DTD/svg10.dtd">
<svg version="1.0" xmlns="http://www.w3.org/2000/svg"
 width="500.000000pt" height="500.000000pt" viewBox="0 0 500.000000 500.000000"
 preserveAspectRatio="xMidYMid meet">

<g transform="translate(0.000000,500.000000) scale(0.100000,-0.100000)"
fill="#000000" stroke="none">
<path d="M1423 3863 c-3 -7 -9 -10 -14 -7 -5 3 -9 0 -9 -5 0 -6 -5 -11 -11
-11 -7 0 -18 -8 -26 -17 -8 -10 -11 -12 -7 -4 5 9 3 12 -5 7 -6 -4 -9 -12 -5
-17 3 -5 -8 -22 -24 -37 -36 -34 -62 -113 -62 -189 0 -130 53 -259 146 -354
l45 -45 -2 -76 c-2 -84 3 -98 31 -98 27 0 33 15 31 82 l-1 60 29 -7 c18 -4 32
-2 37 6 4 8 3 9 -5 5 -16 -10 -53 3 -45 16 4 6 3 8 -3 5 -21 -13 -177 163
-159 180 3 4 6 2 6 -4 0 -12 82 -43 114 -43 11 0 39 9 63 21 116 56 137 282
45 468 -17 34 -35 56 -47 59 -88 17 -117 18 -122 5z m-103 -127 c-5 -15 -10
-38 -10 -52 0 -13 -5 -24 -11 -24 -6 0 -8 8 -5 18 3 9 7 29 10 44 5 31 16 52
22 45 3 -2 0 -16 -6 -31z m-12 -196 l0 -25 -8 25 c-4 14 -8 43 -8 65 l0 40 9
-40 c4 -22 8 -51 7 -65z m47 -168 c-5 -5 -45 107 -45 126 0 9 11 -14 24 -53
14 -38 23 -71 21 -73z"/>
<path d="M1700 3159 c0 -5 5 -7 10 -4 6 3 10 8 10 11 0 2 -4 4 -10 4 -5 0 -10
-5 -10 -11z"/>
<path d="M1618 3133 c7 -3 16 -2 19 1 4 3 -2 6 -13 5 -11 0 -14 -3 -6 -6z"/>
<path d="M1610 2996 c-9 -11 -9 -19 0 -33 9 -15 10 -14 4 7 -6 23 -6 24 12 10
17 -14 18 -13 7 1 -7 9 -10 19 -6 22 3 4 4 7 1 7 -3 0 -11 -7 -18 -14z"/>
<path d="M1320 2986 c0 -2 8 -10 18 -17 15 -13 16 -12 3 4 -13 16 -21 21 -21
13z"/>
<path d="M1310 2952 c0 -23 60 -71 103 -83 85 -23 196 9 223 65 l15 31 -20
-23 c-11 -12 -41 -32 -67 -43 -38 -17 -59 -20 -107 -15 -36 4 -68 13 -80 24
-10 9 -22 17 -26 17 -3 0 -4 5 -3 10 2 6 0 7 -4 3 -4 -4 -13 0 -20 10 -9 12
-13 13 -14 4z"/>
<path d="M1931 2882 c24 -15 56 -33 71 -41 15 -8 25 -17 23 -21 -3 -4 3 -7 12
-6 10 0 18 -4 18 -11 0 -6 4 -15 9 -20 5 -5 6 -3 2 5 -5 8 -1 12 11 12 10 0
-24 25 -76 55 -95 56 -152 78 -70 27z"/>
<path d="M911 2864 c0 -11 3 -14 6 -6 3 7 2 16 -1 19 -3 4 -6 -2 -5 -13z"/>
<path d="M1840 2876 c0 -3 18 -17 40 -31 23 -14 38 -30 35 -35 -3 -5 1 -7 9
-4 9 3 36 -6 60 -20 60 -35 73 -33 16 2 -78 49 -160 94 -160 88z"/>
<path d="M1776 2833 c-3 -8 -11 -11 -17 -7 -8 5 -9 3 -4 -5 5 -9 10 -10 18 -2
15 15 30 14 21 -1 -4 -6 -3 -8 3 -5 13 8 125 -57 121 -70 -2 -4 5 -8 15 -8 10
0 21 -6 26 -13 7 -11 9 -11 13 0 4 8 -29 33 -93 69 -75 43 -99 53 -103 42z"/>
<path d="M896 2823 c-6 -14 -5 -15 5 -6 7 7 10 15 7 18 -3 3 -9 -2 -12 -12z"/>
<path d="M1719 2807 c7 -9 25 -23 40 -30 14 -7 56 -30 94 -51 102 -57 80 -34
-30 31 -114 68 -123 72 -104 50z"/>
<path d="M2784 2801 c-70 -42 -110 -195 -64 -241 30 -30 74 -26 112 11 29 28
30 29 4 10 -87 -63 -141 39 -76 144 13 20 33 41 46 45 33 13 72 -4 78 -32 3
-13 7 -32 9 -43 3 -11 5 4 6 33 2 84 -46 115 -115 73z"/>
<path d="M2120 2776 c0 -3 25 -17 55 -32 36 -19 50 -31 42 -36 -9 -6 -8 -8 3
-9 8 -1 19 -1 23 0 5 1 22 -8 38 -20 17 -12 33 -18 36 -15 8 8 13 4 -92 64
-85 49 -105 58 -105 48z"/>
<path d="M1673 2763 c9 -2 15 -9 11 -14 -3 -5 -10 -6 -16 -3 -7 4 -8 2 -4 -5
5 -7 12 -9 19 -3 12 9 95 -32 89 -43 -2 -4 0 -10 4 -13 4 -4 4 -1 0 6 -11 18
8 15 37 -8 14 -11 36 -20 49 -19 21 1 21 2 3 7 -11 4 -57 28 -102 55 -45 26
-88 46 -95 46 -7 -1 -5 -3 5 -6z"/>
<path d="M1604 2725 c1 -13 5 -28 10 -32 4 -4 6 -2 4 6 -1 7 3 16 11 19 9 3
11 0 6 -8 -5 -9 -4 -11 3 -6 15 9 64 -23 55 -37 -3 -6 -1 -7 6 -3 6 4 26 -2
45 -13 18 -12 40 -21 47 -21 8 0 -17 19 -56 41 -38 22 -84 49 -101 60 l-31 19
1 -25z"/>
<path d="M2070 2743 c1 -9 166 -106 189 -111 9 -2 -15 16 -54 38 -38 23 -85
51 -102 62 -18 11 -33 16 -33 11z"/>
<path d="M1416 2721 c-6 -9 525 -321 544 -321 15 0 490 274 490 282 0 16 -26
7 -83 -27 -32 -19 -63 -32 -69 -29 -6 4 -8 2 -5 -3 8 -12 -20 -26 -34 -17 -5
3 -8 0 -7 -7 2 -7 -1 -13 -7 -14 -5 0 -23 -9 -40 -19 -16 -11 -47 -30 -68 -43
-21 -13 -43 -21 -49 -17 -6 4 -8 3 -5 -3 8 -13 -20 -26 -36 -16 -7 3 -9 3 -5
-2 4 -4 -13 -21 -38 -37 -45 -28 -45 -28 -72 -10 -15 11 -53 34 -85 51 -32 18
-79 45 -105 61 -26 16 -63 38 -82 48 -19 10 -79 44 -132 75 -105 62 -104 61
-112 48z"/>
<path d="M856 2707 c3 -10 9 -15 12 -12 3 3 0 11 -7 18 -10 9 -11 8 -5 -6z"/>
<path d="M2010 2711 c0 -6 15 -18 33 -27 17 -9 34 -20 37 -23 9 -11 108 -61
121 -61 7 0 -27 23 -76 51 -50 28 -96 56 -102 61 -9 7 -13 7 -13 -1z"/>
<path d="M1953 2672 c0 -11 4 -19 8 -16 4 2 28 -9 54 -24 25 -15 55 -32 66
-38 11 -6 20 -15 20 -20 -1 -5 5 -9 12 -9 6 0 15 -4 18 -9 4 -4 9 -4 13 2 3 5
-31 31 -77 57 -45 27 -90 55 -99 63 -15 13 -17 12 -15 -6z"/>
<path d="M846 2655 c-9 -26 -7 -32 5 -12 6 10 9 21 6 23 -2 3 -7 -2 -11 -11z"/>
<path d="M2380 2519 c-140 -82 -290 -169 -332 -194 l-77 -46 40 -85 c21 -47
36 -91 32 -97 -3 -5 -1 -7 5 -3 13 8 26 -29 16 -45 -4 -7 -3 -9 3 -6 11 7 46
-60 38 -74 -4 -5 -2 -9 3 -9 11 0 75 -140 67 -148 -3 -3 -5 1 -5 8 0 7 -3 11
-6 7 -3 -3 -29 8 -57 25 -127 76 -310 180 -325 186 -31 11 -37 27 -37 100 -1
81 -8 92 -62 92 -66 0 -135 -95 -135 -185 0 -25 3 -49 7 -55 13 -22 -13 -8
-48 25 -50 47 -58 93 -32 180 5 17 -5 26 -62 55 -62 32 -158 87 -208 118 -11
7 -34 19 -52 27 -17 8 -37 20 -45 27 -7 7 -38 26 -68 42 -95 50 -170 98 -165
106 3 5 -5 6 -17 2 -14 -3 -19 -1 -14 6 4 7 -1 10 -14 9 -19 -1 -20 -8 -20
-107 0 -58 4 -120 9 -138 7 -23 6 -32 -2 -33 -31 -1 -214 -118 -234 -149 -77
-113 38 -392 193 -469 69 -35 117 -32 184 11 30 19 78 47 106 62 62 33 76 59
84 148 l5 68 282 -168 c156 -93 286 -171 289 -175 4 -4 -8 -13 -27 -21 -82
-34 -110 -113 -84 -232 44 -198 242 -373 352 -311 12 6 60 34 107 60 48 27 93
59 102 72 24 37 34 96 25 152 l-8 51 106 16 c58 9 112 16 118 16 7 0 68 30
136 68 67 37 134 73 148 80 23 12 111 141 103 151 -2 2 -72 -36 -156 -84 -135
-78 -154 -86 -172 -75 -19 11 -172 130 -250 193 l-29 23 144 86 c358 212 563
328 570 321 3 -5 13 -26 20 -48 l13 -40 11 64 c10 63 10 63 29 42 55 -61 102
11 57 86 -33 53 -91 53 -91 -1 0 -18 -6 -21 -43 -22 l-44 -1 -48 81 c-26 44
-76 132 -112 194 -36 61 -66 112 -66 111 -1 0 -117 -68 -257 -150z m-1470 7
c8 -7 39 -26 68 -41 28 -16 52 -31 53 -34 5 -36 4 -71 -2 -71 -16 0 -189 103
-189 112 0 5 29 -7 65 -27 36 -20 65 -34 65 -31 0 3 -30 22 -67 42 -37 21 -62
39 -55 42 6 2 21 -2 34 -8 20 -9 21 -9 5 2 -50 35 -54 40 -22 33 17 -4 37 -12
45 -19z m63 -128 c37 -22 67 -44 67 -49 0 -6 -10 -5 -22 1 l-23 11 23 -17 c23
-17 31 -41 10 -28 -8 5 -7 0 2 -11 14 -17 13 -18 -5 -11 -38 13 -185 101 -185
110 0 4 8 5 18 2 15 -5 15 -5 2 6 -9 7 -16 23 -17 35 -2 22 -1 23 30 7 18 -9
62 -35 100 -56z m1480 -45 l152 -88 -6 -40 c-5 -30 -7 -33 -8 -12 -1 33 -21
37 -21 4 0 -13 -12 -34 -27 -48 -15 -13 -21 -16 -14 -6 12 15 11 17 -9 17 -15
0 -20 -5 -18 -17 2 -12 13 -18 31 -18 24 1 25 -1 12 -14 -19 -20 -47 -5 -55
30 -4 18 -38 42 -138 99 -109 62 -131 79 -132 98 0 24 49 82 70 82 7 0 80 -39
163 -87z m-1319 -1 c3 -20 6 -50 6 -67 -1 -27 -2 -28 -14 -12 -7 9 -21 17 -30
17 -12 0 -16 6 -13 18 3 9 8 34 11 54 8 47 31 41 40 -10z m64 -66 c2 -34 -1
-56 -8 -56 -5 0 -11 15 -11 33 -1 23 -3 26 -6 10 -9 -46 -23 -21 -23 38 l0 61
23 -14 c18 -12 23 -26 25 -72z m36 32 c2 -7 7 -22 12 -33 6 -18 8 -18 11 -2 6
22 15 22 46 -3 14 -11 30 -20 37 -20 7 0 9 -8 4 -22 -4 -13 -10 -39 -14 -58
-8 -38 -12 -31 -28 40 l-10 45 -1 -42 c-1 -44 -20 -61 -22 -20 0 12 -3 16 -6
10 -7 -19 -23 -16 -24 5 0 10 -3 12 -6 4 -2 -6 -9 -10 -14 -6 -13 7 -11 114 1
114 6 0 12 -6 14 -12z m867 -79 c11 -5 24 -21 29 -34 5 -13 27 -34 50 -45 35
-18 39 -23 30 -40 -13 -24 -12 -24 -51 -1 -23 14 -37 17 -50 10 -24 -12 -44
-3 -58 27 -15 33 -14 45 5 72 17 25 19 26 45 11z m250 -55 c11 -14 7 -21 -32
-55 -49 -43 -57 -46 -66 -23 -4 10 8 30 33 55 43 44 46 45 65 23z m-637 -10
c51 -51 6 -181 -70 -200 -80 -20 -87 133 -9 194 33 26 58 28 79 6z m-1041
-210 c31 -60 51 -84 101 -118 45 -30 100 -34 128 -9 25 22 24 -1 -1 -44 -24
-39 -49 -47 -101 -33 -100 27 -196 191 -175 298 l8 37 8 -41 c4 -23 19 -64 32
-90z m138 56 c38 -21 65 -109 37 -126 -7 -5 -9 -2 -6 8 10 24 -28 95 -59 112
-21 11 -23 15 -10 16 10 0 27 -5 38 -10z m938 -703 c58 -85 146 -126 197 -92
25 16 27 16 21 0 -4 -9 -7 -21 -7 -26 0 -23 -42 -49 -78 -49 -102 0 -229 184
-207 298 l7 37 17 -60 c9 -33 32 -82 50 -108z m127 79 c26 -26 34 -42 34 -69
0 -20 -5 -39 -11 -43 -6 -3 -10 1 -9 12 5 42 -2 58 -35 91 -19 19 -35 37 -35
39 0 14 27 -1 56 -30z"/>
<path d="M910 2496 c0 -3 9 -10 20 -16 11 -6 20 -8 20 -6 0 3 -9 10 -20 16
-11 6 -20 8 -20 6z"/>
<path d="M960 2466 c0 -3 14 -12 30 -21 17 -9 30 -13 30 -11 0 3 -13 12 -30
21 -16 9 -30 13 -30 11z"/>
<path d="M994 2416 c11 -9 24 -16 30 -16 12 0 7 5 -24 19 -24 11 -24 11 -6 -3z"/>
<path d="M860 2436 c0 -3 14 -12 30 -21 17 -9 30 -13 30 -11 0 3 -13 12 -30
21 -16 9 -30 13 -30 11z"/>
<path d="M880 2396 c0 -3 14 -12 30 -21 17 -9 30 -13 30 -11 0 3 -13 12 -30
21 -16 9 -30 13 -30 11z"/>
<path d="M950 2356 c0 -3 9 -10 20 -16 11 -6 20 -8 20 -6 0 3 -9 10 -20 16
-11 6 -20 8 -20 6z"/>
<path d="M2072 2208 c-17 -17 -15 -33 6 -49 15 -13 16 -12 3 4 -11 14 -11 20
-1 32 16 19 8 29 -8 13z"/>
<path d="M1890 2643 c0 -5 22 -20 49 -34 32 -16 45 -27 38 -32 -8 -6 -5 -7 6
-3 9 3 17 1 17 -4 0 -6 3 -9 8 -8 4 1 22 -6 40 -16 60 -32 43 -11 -21 26 -34
20 -79 46 -99 58 -21 12 -38 18 -38 13z"/>
<path d="M2200 2636 c0 -2 7 -7 16 -10 8 -3 12 -2 9 4 -6 10 -25 14 -25 6z"/>
<path d="M1844 2601 c4 -6 22 -18 39 -27 18 -9 56 -32 85 -52 29 -19 56 -32
59 -28 8 7 13 4 -72 53 -101 58 -119 67 -111 54z"/>
<path d="M1720 2576 c0 -2 7 -7 16 -10 8 -3 12 -2 9 4 -6 10 -25 14 -25 6z"/>
<path d="M3035 2410 c-3 -6 5 -10 18 -10 32 0 84 -58 93 -105 3 -19 11 -35 16
-35 12 0 1 54 -18 92 -26 50 -92 86 -109 58z"/>
<path d="M3055 2374 c11 -8 28 -25 37 -37 10 -12 18 -16 18 -9 0 15 -48 62
-64 62 -6 0 -2 -7 9 -16z"/>
<path d="M1860 2251 c0 -6 5 -13 11 -17 6 -3 9 -17 6 -30 -5 -29 -1 -30 13 -4
8 14 8 26 0 40 -11 21 -30 27 -30 11z"/>
<path d="M3097 2136 c-4 -10 -7 -25 -6 -34 0 -11 4 -9 10 7 5 13 8 29 6 35 -2
5 -6 2 -10 -8z"/>
<path d="M2594 1976 c-224 -131 -267 -161 -229 -161 22 0 484 268 485 282 0 6
-3 14 -7 16 -5 3 -117 -59 -249 -137z"/>
<path d="M3106 2040 c-11 -50 -16 -101 -13 -129 4 -28 1 -57 -7 -76 -13 -29
-13 -29 -10 20 l4 50 -13 -42 c-15 -52 -35 -73 -77 -82 -29 -6 -43 -22 -117
-139 -45 -73 -83 -136 -83 -138 0 -3 19 6 42 20 23 14 55 46 72 73 24 36 38
49 60 51 15 2 75 31 132 65 89 53 108 68 125 105 18 37 19 47 9 73 -7 16 -10
32 -6 36 3 3 6 -1 6 -10 0 -8 12 -29 26 -46 33 -39 71 -42 80 -6 15 62 -26
135 -76 135 -22 0 -29 -7 -38 -32 -8 -28 -10 -29 -11 -10 -1 13 -16 47 -35 75
-18 29 -38 60 -43 70 -8 15 -13 2 -27 -63z"/>
<path d="M2620 1931 c-123 -71 -226 -134 -228 -139 -2 -6 2 -13 7 -16 13 -9
26 -2 334 179 122 71 163 106 125 105 -7 0 -114 -59 -238 -129z"/>
<path d="M3305 2049 c11 -7 41 -35 67 -63 55 -60 66 -42 15 26 -26 34 -40 44
-67 46 -31 2 -33 1 -15 -9z"/>
<path d="M2651 1883 c-192 -109 -221 -128 -207 -139 14 -10 47 6 214 103 206
120 227 134 221 152 -2 6 -104 -46 -228 -116z"/>
<path d="M2892 1958 c-7 -7 -12 -26 -12 -42 0 -30 -8 -36 -175 -131 -96 -54
-175 -103 -175 -107 0 -4 4 -9 9 -13 11 -6 331 174 338 191 2 6 18 -3 37 -22
23 -23 39 -31 54 -28 44 12 34 105 -15 144 -30 23 -44 25 -61 8z"/>
<path d="M2671 1832 c-101 -59 -183 -112 -182 -117 3 -23 45 -5 208 90 119 69
173 105 173 118 0 9 -3 17 -7 16 -5 0 -91 -49 -192 -107z"/>
<path d="M3590 1876 c0 -3 34 -26 75 -51 53 -34 75 -53 75 -67 0 -24 30 -76
77 -135 39 -49 42 -68 11 -59 -13 3 -29 6 -35 6 -7 0 -13 8 -13 17 0 15 -1 15
-13 -1 -8 -11 -20 -16 -28 -13 -11 4 -10 6 3 6 11 1 15 7 11 21 -5 17 -13 20
-57 19 -28 -1 -56 -5 -61 -10 -14 -10 -23 -3 -66 51 -50 63 -52 69 -38 88 11
13 9 13 -8 -2 -13 -10 -19 -24 -16 -30 29 -47 105 -142 159 -197 35 -36 64
-69 64 -73 0 -9 -65 1 -90 14 -18 10 -24 9 -32 -1 -6 -10 -7 -6 -3 10 7 21 5
23 -19 19 -19 -4 -27 0 -31 13 -5 15 -10 16 -33 8 -21 -8 -29 -7 -38 5 -20 28
-24 25 -125 -84 -17 -19 -45 -62 -61 -95 -16 -33 -43 -82 -60 -108 -58 -89
-50 -207 22 -293 122 -148 346 -224 625 -211 266 12 479 117 545 269 30 71 25
156 -13 218 -15 25 -31 52 -36 60 -5 8 -21 41 -36 73 -16 35 -37 63 -51 69
-13 6 -21 15 -18 20 3 5 -9 23 -28 40 -18 17 -27 28 -20 24 23 -14 12 0 -17
22 -21 15 -32 18 -37 10 -4 -7 -3 -8 5 -4 7 5 10 2 9 -6 -2 -7 2 -12 8 -11 6
1 11 -3 11 -10 0 -7 -10 -12 -23 -12 -12 0 -20 3 -18 7 2 4 0 10 -6 13 -7 5
-8 11 -1 19 5 6 7 16 3 22 -9 13 -74 39 -89 36 -7 -2 -13 1 -13 6 0 11 -66 30
-122 36 -33 4 -38 1 -46 -22 l-9 -27 -12 22 c-10 19 -9 22 4 17 8 -4 15 -1 15
4 0 6 -12 12 -27 14 -32 4 -113 102 -106 129 5 18 -17 36 -105 88 -53 31 -62
35 -62 27z m80 -276 c0 -5 12 -11 28 -11 24 -1 23 -2 -8 -8 -46 -9 -63 -4 -47
15 14 16 27 18 27 4z m265 -8 c-3 -3 -11 0 -18 7 -9 10 -8 11 6 5 10 -3 15 -9
12 -12z m48 11 c-7 -2 -19 -2 -25 0 -7 3 -2 5 12 5 14 0 19 -2 13 -5z m44 -9
c-3 -3 -12 -4 -19 -1 -8 3 -5 6 6 6 11 1 17 -2 13 -5z m-99 -20 c6 -1 29 -2
50 -3 33 -3 34 -4 12 -10 -14 -5 -33 -4 -42 1 -22 11 -31 10 -23 -2 3 -5 0
-10 -7 -10 -8 0 -15 10 -15 22 -1 13 1 18 5 13 4 -6 13 -10 20 -11z m55 9 c-7
-2 -19 -2 -25 0 -7 3 -2 5 12 5 14 0 19 -2 13 -5z m107 -15 c0 -5 -7 -8 -15
-8 -8 0 -18 0 -22 -1 -4 0 -9 4 -11 9 -2 6 8 9 23 8 14 0 25 -4 25 -8z m-390
-8 c-19 -13 -30 -13 -30 0 0 6 10 10 23 10 18 0 19 -2 7 -10z m20 -20 c-8 -5
-19 -10 -25 -10 -5 0 -3 5 5 10 8 5 20 10 25 10 6 0 3 -5 -5 -10z m243 -2 c3
-10 8 -9 23 2 18 14 18 14 5 -3 -8 -9 -11 -21 -7 -24 4 -4 10 -2 14 4 8 12 92
29 92 17 0 -15 -36 -33 -67 -34 -19 0 -33 -5 -33 -12 -1 -7 -8 -1 -16 15 -8
15 -19 27 -24 27 -6 0 -10 5 -10 10 0 14 18 12 23 -2z m-485 -39 c3 -12 2 -12
-7 1 -9 13 -24 9 -27 -8 -6 -27 -18 -52 -26 -52 -5 0 -4 -8 1 -19 10 -18 6
-31 -11 -31 -5 0 -6 5 -2 11 4 7 1 10 -6 7 -8 -2 -19 -20 -26 -39 -12 -31 -13
-32 -13 -8 -1 15 8 38 19 52 11 14 20 28 20 32 0 3 12 22 26 41 27 35 45 40
52 13z m511 -73 c-9 -8 -10 -7 -5 7 3 10 7 24 7 30 1 7 3 4 6 -7 3 -10 -1 -23
-8 -30z m261 22 c11 -22 10 -22 -4 -4 -9 11 -17 18 -19 15 -1 -2 -14 -28 -27
-57 -16 -35 -26 -48 -32 -40 -6 10 -8 9 -8 -3 0 -9 9 -19 21 -22 13 -4 18 -10
14 -17 -11 -18 -49 24 -41 45 3 9 11 13 18 9 8 -5 9 -2 5 10 -4 11 -3 15 4 11
6 -4 9 -1 8 6 -4 21 22 69 37 69 7 0 18 -10 24 -22z m-750 -10 c-1 -19 -28
-71 -31 -57 0 2 -2 12 -4 22 -2 9 3 17 11 17 8 0 14 5 14 11 0 5 -4 7 -10 4
-6 -3 -7 1 -4 9 9 24 24 19 24 -6z m180 -20 c0 -5 -4 -8 -10 -8 -5 0 -10 5
-10 10 0 6 -3 9 -7 9 -5 -1 -15 -1 -23 0 -13 1 -13 3 -1 10 14 9 51 -6 51 -21z
m-55 -10 c6 -4 2 -8 -7 -8 -10 0 -18 7 -18 17 0 9 3 12 8 7 4 -5 12 -12 17
-16z m375 -55 c0 -2 -5 -1 -11 2 -6 4 -9 0 -7 -11 2 -14 -4 -18 -30 -20 l-34
-2 31 22 c24 16 29 26 25 46 -5 24 -5 23 10 -4 9 -15 16 -30 16 -33z m-297 13
c-3 -4 -9 -2 -14 5 -13 22 -11 31 5 17 8 -7 12 -17 9 -22z m-193 20 c0 -2 -7
-20 -15 -40 -9 -22 -11 -36 -5 -36 6 0 15 10 20 23 8 21 9 21 9 -6 1 -16 -3
-26 -9 -22 -11 7 -12 3 -4 -19 3 -8 11 -13 18 -10 15 6 42 -23 32 -34 -4 -4
-12 1 -17 11 -6 9 -14 15 -19 12 -12 -7 -45 47 -42 70 2 14 0 16 -6 7 -6 -9
-12 -5 -21 15 -10 23 -10 26 0 16 18 -18 39 -16 39 2 0 8 5 15 10 15 6 0 10
-2 10 -4z m753 -10 c13 -10 15 -16 6 -21 -6 -4 -15 -1 -20 6 -5 8 -9 11 -9 7
0 -3 -3 -14 -7 -24 -4 -12 -3 -15 5 -10 7 4 12 2 12 -4 0 -6 6 -8 13 -4 6 4 9
4 5 -1 -4 -4 -2 -15 4 -24 8 -9 2 -8 -12 4 l-24 20 17 -27 c10 -17 13 -29 7
-33 -6 -4 -9 -2 -8 3 2 5 -8 19 -22 31 -14 13 -19 20 -13 16 8 -4 12 0 11 12
-2 33 2 63 10 63 4 0 15 -7 25 -14z m-303 -6 c0 -12 -60 -44 -67 -36 -3 3 6
10 20 15 14 5 28 15 32 20 8 14 15 14 15 1z m-520 -48 c0 -13 -3 -12 -15 4
-19 25 -19 40 0 24 8 -7 15 -20 15 -28z m300 26 c0 -5 4 -7 8 -4 4 2 14 1 21
-3 9 -6 10 -11 2 -15 -6 -4 -11 -2 -11 4 0 7 -9 5 -22 -4 -12 -9 -32 -16 -43
-15 -14 0 -9 5 15 15 l35 13 -32 -3 c-18 -3 -33 0 -33 6 0 6 7 8 15 4 8 -3 15
-2 15 3 0 4 7 8 15 8 8 0 15 -4 15 -9z m470 2 c0 -5 -2 -10 -4 -10 -3 0 -8 5
-11 10 -3 6 -1 10 4 10 6 0 11 -4 11 -10z m-789 -42 c6 -11 8 -22 5 -26 -3 -3
-6 0 -6 8 0 10 -3 10 -15 0 -10 -9 -15 -9 -15 -1 0 6 5 11 11 11 5 0 8 4 4 10
-3 5 -12 7 -20 3 -11 -4 -13 -1 -9 10 7 19 31 11 45 -15z m409 28 c0 -2 -7 -6
-15 -10 -8 -3 -15 -1 -15 4 0 6 7 10 15 10 8 0 15 -2 15 -4z m41 -14 c-7 -2
-18 1 -23 6 -8 8 -4 9 13 5 13 -4 18 -8 10 -11z m292 -11 c10 -1 9 -29 -2 -36
-5 -3 -13 0 -17 6 -4 8 -3 9 4 5 7 -4 12 -3 12 3 0 15 -14 21 -30 11 -11 -7
-11 -11 -1 -24 11 -13 11 -19 1 -31 -14 -17 -30 -20 -30 -5 0 6 7 10 15 10 21
0 19 13 -5 35 -25 22 -18 35 18 30 15 -2 30 -4 35 -4z m-603 -11 c0 -5 -7 -10
-15 -10 -8 0 -15 5 -15 10 0 6 7 10 15 10 8 0 15 -4 15 -10z m539 -24 c9 -10
8 -15 -2 -19 -8 -3 -13 3 -13 14 0 23 0 23 15 5z m-650 -8 c-3 -26 1 -39 11
-33 6 4 7 11 4 17 -4 7 -2 8 5 4 9 -6 9 -11 0 -22 -14 -17 -14 -17 -33 2 -13
12 -13 18 -3 29 15 18 18 18 16 3z m141 -6 c0 -26 65 -49 87 -30 10 7 14 8 10
1 -4 -6 -1 -13 5 -16 7 -2 -17 -4 -54 -3 -36 1 -70 4 -74 9 -4 4 -2 7 5 7 7 0
9 9 5 25 -4 15 -2 25 5 25 6 0 11 -8 11 -18z m619 -1 c-22 -18 -18 -48 4 -34
7 3 3 -3 -7 -15 -21 -24 -36 -28 -36 -11 0 5 4 8 9 4 17 -10 20 9 5 30 -8 10
-14 16 -14 12 0 -4 1 -9 3 -10 1 -2 -3 -10 -9 -18 -6 -8 -10 -21 -9 -31 2 -13
-3 -15 -26 -13 -19 3 -27 0 -23 -7 4 -5 1 -14 -6 -18 -16 -10 -40 -2 -40 12 0
6 7 7 16 4 8 -3 12 -2 9 3 -3 5 4 13 16 16 11 4 18 9 16 12 -9 8 75 79 94 80
18 2 18 1 -2 -16z m-712 -36 c-4 -8 -2 -17 3 -20 6 -4 10 -12 10 -18 0 -7 -4
-6 -10 3 -5 8 -10 11 -10 5 0 -5 -4 -3 -10 5 -5 9 -5 19 2 27 14 17 21 16 15
-2z m503 -6 c-23 -6 -23 -7 -3 -8 12 -1 24 -5 27 -10 4 -5 -10 -5 -32 0 -20 5
-41 9 -47 9 -5 1 6 7 25 14 19 7 39 10 45 7 5 -3 -1 -8 -15 -12z m82 13 c-6
-2 -10 -8 -7 -13 4 -5 -2 -6 -11 -2 -12 4 -15 3 -10 -5 4 -7 3 -12 -3 -12 -5
0 -13 5 -16 10 -3 6 0 10 7 10 11 0 11 2 0 8 -8 6 -1 9 20 9 18 0 27 -2 20 -5z
m-332 -12 c18 -12 2 -12 -25 0 -13 6 -15 9 -5 9 8 0 22 -4 30 -9z m110 -1 c0
-7 11 -9 30 -5 17 3 30 1 30 -4 0 -11 -40 -13 -64 -4 -18 7 -22 24 -6 24 6 0
10 -5 10 -11z m-310 -14 c30 -16 40 -35 18 -35 -6 0 -9 -3 -6 -6 4 -3 16 0 28
6 17 9 21 9 15 0 -5 -9 -1 -10 16 -6 22 6 22 5 -3 -9 -21 -12 -32 -13 -52 -4
-14 7 -23 17 -19 22 4 6 0 8 -9 4 -11 -4 -15 0 -13 11 1 9 -3 20 -9 24 -20 14
4 8 34 -7z m195 -4 c14 -6 5 -8 -30 -8 -39 -1 -44 1 -25 7 32 10 31 10 55 1z
m230 -11 c13 -6 15 -9 5 -9 -8 0 -22 4 -30 9 -18 12 -2 12 25 0z m-69 -15
c-36 -19 -42 -19 -26 0 7 8 22 15 34 15 18 0 17 -2 -8 -15z m-169 -1 c-3 -3
-12 -4 -19 -1 -8 3 -5 6 6 6 11 1 17 -2 13 -5z m307 -20 c4 -9 4 -19 1 -22 -3
-3 -5 0 -5 6 0 7 -12 12 -27 13 -25 0 -26 1 -8 9 29 12 32 12 39 -6z m-404
-14 c-8 -5 -19 -10 -25 -10 -5 0 -3 5 5 10 8 5 20 10 25 10 6 0 3 -5 -5 -10z
m382 -9 c4 -3 -14 -6 -40 -6 -26 -1 -54 -3 -62 -6 -8 -3 -11 -4 -6 -1 4 2 2 9
-5 14 -10 7 -8 8 8 3 12 -3 24 -1 28 4 6 10 63 4 77 -8z m-303 2 c23 -6 23 -7
5 -14 -10 -4 -26 -8 -34 -8 -13 -1 -13 0 0 10 11 8 6 9 -20 5 -26 -5 -30 -4
-15 3 25 12 34 12 64 4z m166 -3 c7 -12 -2 -12 -30 0 -19 8 -19 9 2 9 12 1 25
-3 28 -9z m-28 -14 c12 -11 -7 -19 -19 -8 -7 5 -24 12 -38 15 -14 2 -8 3 13 2
21 -2 41 -6 44 -9z m-71 -14 c-10 -2 -22 0 -28 6 -6 6 0 7 19 4 21 -5 23 -7 9
-10z"/>
<path d="M3588 1223 c6 -2 18 -2 25 0 6 3 1 5 -13 5 -14 0 -19 -2 -12 -5z"/>
<path d="M4135 1210 c-3 -5 -3 -10 2 -10 4 0 1 -5 -7 -11 -12 -8 -12 -10 -1
-7 8 2 15 12 17 21 3 19 -2 22 -11 7z"/>
<path d="M3540 1190 c8 -5 20 -10 25 -10 6 0 3 5 -5 10 -8 5 -19 10 -25 10 -5
0 -3 -5 5 -10z"/>
<path d="M3570 1845 c0 -8 5 -15 10 -15 6 0 10 7 10 15 0 8 -4 15 -10 15 -5 0
-10 -7 -10 -15z"/>
<path d="M3532 1791 c4 -13 18 -16 19 -4 0 4 -5 9 -11 12 -7 2 -11 -2 -8 -8z"/>
<path d="M3590 1796 c0 -7 71 -49 75 -44 2 2 -14 14 -36 26 -21 12 -39 21 -39
18z"/>
<path d="M3710 1766 c0 -9 5 -16 10 -16 6 0 10 4 10 9 0 6 -4 13 -10 16 -5 3
-10 -1 -10 -9z"/>
<path d="M3466 1722 c-3 -6 -1 -14 5 -17 15 -10 25 3 12 16 -7 7 -13 7 -17 1z"/>
<path d="M3670 1705 c0 -8 5 -15 10 -15 6 0 10 7 10 15 0 8 -4 15 -10 15 -5 0
-10 -7 -10 -15z"/>
<path d="M3416 1681 c-4 -7 -5 -15 -2 -18 9 -9 19 4 14 18 -4 11 -6 11 -12 0z"/>
<path d="M3469 1655 c15 -30 51 -71 51 -60 -1 6 -14 26 -31 45 -17 19 -26 26
-20 15z"/>
<path d="M3560 1585 c0 -8 5 -15 10 -15 6 0 10 7 10 15 0 8 -4 15 -10 15 -5 0
-10 -7 -10 -15z"/>
<path d="M3510 1545 c0 -8 5 -15 10 -15 6 0 10 7 10 15 0 8 -4 15 -10 15 -5 0
-10 -7 -10 -15z"/>
</g>
</svg>
